<svg width="720" height="437" viewBox="0 0 720 437" fill="none" xmlns="http://www.w3.org/2000/svg">
  <g clip-path="url(#clip0)">
    <path d="M720 0H0V436.154H720V0Z" fill="white"/>
    <path d="M21.8645 378.572V386.82C24.4336 386.009 26.7661 385.603 28.862 385.603C33.1213 385.603 36.6594 387.057 39.4765 389.964C42.2934 392.872 43.7019 396.623 43.702 401.221C43.7019 405.954 42.2765 409.666 39.4257 412.359C36.5749 415.053 32.2086 416.399 26.3266 416.399C21.1433 416.399 17.0418 415.419 14.022 413.458C12.2641 412.331 11.3853 411.035 11.3853 409.571C11.3853 408.647 11.7289 407.841 12.4163 407.153C13.1036 406.467 13.9206 406.122 14.8671 406.122C15.6558 406.122 16.5122 406.5 17.4362 407.255C18.3602 408.01 19.3292 408.534 20.3434 408.827C21.7857 409.255 23.6336 409.469 25.8872 409.469C30.0789 409.469 32.9409 408.799 34.4734 407.458C36.0059 406.117 36.7721 404.061 36.7721 401.289C36.7721 398.562 36.034 396.42 34.558 394.866C33.0818 393.311 31.1832 392.533 28.862 392.533C26.3604 392.533 23.5096 393.345 20.3095 394.967C19.5884 395.35 18.9574 395.542 18.4165 395.542C17.4249 395.542 16.5967 395.181 15.9319 394.46C15.2671 393.739 14.9347 392.804 14.9347 391.655V371.642H36.1299C37.7975 371.642 38.9862 371.963 39.6962 372.606C40.406 373.248 40.761 374.087 40.761 375.124C40.761 376.139 40.406 376.967 39.6962 377.609C38.9862 378.251 37.7975 378.572 36.1299 378.572H21.8645Z" fill="black"/>
    <path d="M55.3846 13.8462H48.4615V422.308H55.3846V13.8462Z" fill="black"/>
    <path d="M69.2308 13.8462H62.3077V422.308H69.2308V13.8462Z" fill="black"/>
    <path d="M96.9232 13.8462H90.0001V360H96.9232V13.8462Z" fill="black"/>
    <path d="M117.692 13.8462H103.846V360H117.692V13.8462Z" fill="black"/>
    <path d="M103.217 397.198C101.482 398.685 99.8933 399.739 98.4511 400.359C97.0088 400.978 95.4876 401.288 93.8875 401.288C90.169 401.288 86.9182 399.801 84.135 396.826C81.3518 393.852 79.9602 390.155 79.9602 385.738C79.9602 382.29 80.918 379.158 82.8336 376.341C85.4478 372.465 89.1324 370.526 93.8875 370.526C97.2905 370.526 100.265 371.546 102.812 373.586C105.358 375.625 107.229 378.566 108.423 382.408C109.618 386.251 110.215 390.256 110.215 394.426C110.215 401.502 107.477 407.181 102.001 411.463C97.7637 414.754 93.1213 416.399 88.0732 416.399C85.2787 416.399 83.1153 415.835 81.5828 414.708C80.5462 413.965 80.0278 412.984 80.0278 411.767C80.0278 410.776 80.3602 409.948 81.025 409.283C81.6899 408.618 82.5068 408.286 83.4759 408.286C84.0167 408.286 84.6252 408.454 85.3013 408.793C86.1802 409.244 87.1041 409.469 88.0732 409.469C91.5663 409.469 94.789 408.28 97.7412 405.903C100.693 403.525 102.519 400.623 103.217 397.198ZM102.237 386.279C101.493 383.079 100.395 380.809 98.9412 379.468C97.4876 378.127 95.8256 377.456 93.9551 377.456C91.9944 377.456 90.3268 378.205 88.9521 379.704C87.5774 381.203 86.8901 383.191 86.8901 385.671C86.8901 388.263 87.5831 390.358 88.969 391.958C90.355 393.558 91.9382 394.358 93.7185 394.358C96.851 394.358 99.6906 391.665 102.237 386.279Z" fill="black"/>
    <path d="M131.539 13.8462H124.615V360H131.539V13.8462Z" fill="black"/>
    <path d="M166.154 13.8462H145.385V360H166.154V13.8462Z" fill="black"/>
    <path d="M157.054 389.66V397.265C157.054 401.773 155.752 406.088 153.149 410.212C150.547 414.336 146.822 416.399 141.977 416.399C139.183 416.399 136.822 415.785 134.895 414.556C132.968 413.328 131.143 411.063 129.419 407.761C127.695 404.46 126.833 400.962 126.833 397.265V389.66C126.833 385.175 128.129 380.865 130.721 376.729C133.312 372.594 137.031 370.526 141.876 370.526C144.648 370.526 146.997 371.135 148.924 372.352C150.851 373.569 152.688 375.828 154.434 379.13C156.181 382.431 157.054 385.941 157.054 389.66ZM150.09 389.66C150.09 385.896 149.042 382.606 146.946 379.789C145.752 378.234 144.073 377.456 141.91 377.456C139.814 377.456 138.101 378.313 136.771 380.026C134.766 382.617 133.763 385.828 133.763 389.66V397.265C133.763 401.052 134.822 404.341 136.94 407.136C138.112 408.691 139.791 409.469 141.977 409.469C144.051 409.469 145.752 408.612 147.082 406.9C149.087 404.308 150.09 401.097 150.09 397.265V389.66Z" fill="black"/>
    <path d="M186.923 13.8462H173.077V360H186.923V13.8462Z" fill="black"/>
    <path d="M214.615 13.8462H200.769V360H214.615V13.8462Z" fill="black"/>
    <path d="M193.921 370.526V408.454H200.918C202.586 408.454 203.774 408.776 204.484 409.418C205.194 410.061 205.549 410.9 205.549 411.937C205.549 412.95 205.194 413.779 204.484 414.421C203.774 415.063 202.586 415.384 200.918 415.384H179.993C178.326 415.384 177.137 415.063 176.427 414.421C175.717 413.779 175.362 412.939 175.362 411.903C175.362 410.889 175.717 410.061 176.427 409.418C177.137 408.776 178.326 408.454 179.993 408.454H186.991V379.552L180.805 381.175C179.813 381.445 179.069 381.58 178.574 381.58C177.695 381.58 176.934 381.231 176.292 380.532C175.649 379.834 175.328 378.977 175.328 377.963C175.328 377.04 175.565 376.313 176.038 375.783C176.511 375.253 177.503 374.785 179.013 374.38L193.921 370.526Z" fill="black"/>
    <path d="M235.385 13.8462H228.462V360H235.385V13.8462Z" fill="black"/>
    <path d="M263.077 13.8462H249.231V360H263.077V13.8462Z" fill="black"/>
    <path d="M232.376 408.454H247.554C248.388 407.779 249.177 407.44 249.92 407.44C250.98 407.44 251.819 407.79 252.439 408.488C253.058 409.187 253.368 410.381 253.368 412.072V415.384H221.795V408.049C234.28 397.75 241.819 391.125 244.41 388.172C245.717 386.662 246.371 385.231 246.371 383.879C246.371 382.189 245.633 380.696 244.157 379.4C242.681 378.104 240.714 377.456 238.258 377.456C235.779 377.456 233.717 378.178 232.072 379.62C231.215 380.386 230.528 381.524 230.01 383.034C229.694 383.981 229.26 384.656 228.708 385.062C228.156 385.468 227.474 385.671 226.663 385.671C225.717 385.671 224.9 385.333 224.212 384.656C223.525 383.981 223.181 383.191 223.181 382.29C223.181 380.938 223.807 379.248 225.057 377.22C226.308 375.191 228.134 373.569 230.534 372.352C232.934 371.135 235.542 370.526 238.359 370.526C242.731 370.526 246.315 371.851 249.109 374.498C251.904 377.146 253.301 380.352 253.301 384.116C253.301 386.031 252.901 387.806 252.101 389.44C251.301 391.073 249.38 393.333 246.337 396.217C243.948 398.494 239.295 402.573 232.376 408.454Z" fill="black"/>
    <path d="M297.692 13.8462H270V360H297.692V13.8462Z" fill="black"/>
    <path d="M311.538 13.8462H304.615V360H311.538V13.8462Z" fill="black"/>
    <path d="M297.199 392.229C299.25 393.626 300.782 395.243 301.796 397.08C302.81 398.917 303.317 400.973 303.317 403.249C303.317 405.705 302.647 407.976 301.306 410.061C299.965 412.145 298.021 413.722 295.475 414.793C292.928 415.864 289.593 416.399 285.469 416.399C280.105 416.399 276.071 415.564 273.367 413.897C271.857 412.95 271.102 411.824 271.102 410.517C271.102 409.525 271.434 408.686 272.099 407.998C272.764 407.311 273.57 406.967 274.516 406.967C275.17 406.967 275.846 407.192 276.544 407.643C277.536 408.319 278.471 408.77 279.35 408.995C280.702 409.311 282.562 409.469 284.928 409.469C288.962 409.469 291.88 408.945 293.683 407.897C295.486 406.849 296.387 405.367 296.387 403.452C296.387 402.032 295.864 400.663 294.816 399.344C293.768 398.026 292.365 397.006 290.607 396.285C289.593 395.879 287.88 395.598 285.469 395.44C284.319 395.373 283.435 395.017 282.815 394.375C282.195 393.733 281.885 392.938 281.886 391.992C281.885 391.001 282.224 390.166 282.9 389.491C283.576 388.814 284.432 388.477 285.469 388.477C287.767 388.477 288.996 388.465 289.153 388.443C290.055 388.353 290.956 388.06 291.858 387.563C292.759 387.068 293.486 386.386 294.038 385.518C294.59 384.651 294.866 383.755 294.866 382.831C294.866 381.367 294.218 380.099 292.923 379.028C291.627 377.958 289.683 377.422 287.091 377.422C283.756 377.422 281.209 378.392 279.452 380.329C278.933 380.893 278.516 381.254 278.201 381.412C277.728 381.659 277.198 381.783 276.612 381.783C275.666 381.783 274.854 381.445 274.178 380.769C273.502 380.093 273.164 379.259 273.164 378.268C273.164 376.713 274.201 375.203 276.274 373.738C279.294 371.597 283.069 370.526 287.598 370.526C291.88 370.526 295.317 371.743 297.909 374.178C300.5 376.611 301.796 379.541 301.796 382.966C301.796 384.746 301.413 386.409 300.647 387.952C299.881 389.496 298.731 390.922 297.199 392.229Z" fill="black"/>
    <path d="M346.154 13.8462H325.385V360H346.154V13.8462Z" fill="black"/>
    <path d="M360 13.8462H353.077V360H360V13.8462Z" fill="black"/>
    <path d="M345.931 371.642V398.754C347.396 398.754 348.477 399.074 349.176 399.717C349.875 400.359 350.224 401.187 350.224 402.201C350.224 403.215 349.869 404.049 349.159 404.703C348.449 405.356 347.373 405.683 345.931 405.683V408.455C347.396 408.455 348.477 408.782 349.176 409.435C349.875 410.089 350.224 410.923 350.224 411.937C350.224 412.951 349.869 413.779 349.159 414.421C348.449 415.064 347.26 415.385 345.593 415.385H336.297C334.629 415.385 333.44 415.064 332.73 414.421C332.02 413.779 331.665 412.94 331.666 411.903C331.665 410.889 332.02 410.061 332.73 409.419C333.44 408.776 334.629 408.455 336.297 408.455H339.001V405.683H320.172V399.903L336.77 371.642H345.931ZM339.001 398.754V381.716L328.961 398.754H339.001Z" fill="black"/>
    <path d="M373.846 13.8462H366.923V422.308H373.846V13.8462Z" fill="black"/>
    <path d="M387.692 13.8462H380.769V422.308H387.692V13.8462Z" fill="black"/>
    <path d="M408.462 13.8462H394.615V360H408.462V13.8462Z" fill="black"/>
    <path d="M436.154 13.8462H422.308V360H436.154V13.8462Z" fill="black"/>
    <path d="M422.382 370.526V408.454H429.38C431.047 408.454 432.236 408.776 432.946 409.418C433.656 410.061 434.011 410.9 434.011 411.937C434.011 412.95 433.656 413.779 432.946 414.421C432.236 415.063 431.047 415.384 429.38 415.384H408.455C406.787 415.384 405.598 415.063 404.889 414.421C404.179 413.779 403.824 412.939 403.824 411.903C403.824 410.889 404.179 410.061 404.889 409.418C405.598 408.776 406.787 408.454 408.455 408.454H415.452V379.552L409.266 381.175C408.275 381.445 407.531 381.58 407.035 381.58C406.156 381.58 405.396 381.231 404.753 380.532C404.111 379.834 403.79 378.977 403.79 377.963C403.79 377.04 404.026 376.313 404.5 375.783C404.973 375.253 405.965 374.785 407.475 374.38L422.382 370.526Z" fill="black"/>
    <path d="M456.923 13.8462H443.077V360H456.923V13.8462Z" fill="black"/>
    <path d="M477.692 13.8462H463.846V360H477.692V13.8462Z" fill="black"/>
    <path d="M460.838 408.454H476.016C476.849 407.779 477.638 407.44 478.382 407.44C479.441 407.44 480.28 407.79 480.9 408.488C481.52 409.187 481.83 410.381 481.83 412.072V415.384H450.257V408.049C462.742 397.75 470.28 391.125 472.872 388.172C474.179 386.662 474.832 385.231 474.832 383.879C474.832 382.189 474.094 380.696 472.618 379.4C471.142 378.104 469.176 377.456 466.719 377.456C464.24 377.456 462.178 378.178 460.533 379.62C459.677 380.386 458.99 381.524 458.471 383.034C458.156 383.981 457.722 384.656 457.17 385.062C456.618 385.468 455.936 385.671 455.125 385.671C454.178 385.671 453.361 385.333 452.674 384.656C451.986 383.981 451.643 383.191 451.643 382.29C451.643 380.938 452.268 379.248 453.519 377.22C454.77 375.191 456.595 373.569 458.995 372.352C461.395 371.135 464.004 370.526 466.821 370.526C471.193 370.526 474.776 371.851 477.571 374.498C480.365 377.146 481.762 380.352 481.762 384.116C481.762 386.031 481.362 387.806 480.562 389.44C479.762 391.073 477.841 393.333 474.799 396.217C472.41 398.494 467.756 402.573 460.838 408.454Z" fill="black"/>
    <path d="M498.462 13.8462H491.539V360H498.462V13.8462Z" fill="black"/>
    <path d="M533.077 13.8462H526.154V360H533.077V13.8462Z" fill="black"/>
    <path d="M525.66 392.229C527.711 393.626 529.244 395.243 530.258 397.08C531.272 398.917 531.779 400.973 531.779 403.249C531.779 405.705 531.108 407.976 529.768 410.061C528.427 412.145 526.483 413.722 523.936 414.793C521.39 415.864 518.054 416.399 513.93 416.399C508.567 416.399 504.533 415.564 501.828 413.897C500.319 412.95 499.564 411.824 499.564 410.517C499.564 409.525 499.896 408.686 500.561 407.998C501.226 407.311 502.031 406.967 502.978 406.967C503.631 406.967 504.307 407.192 505.006 407.643C505.998 408.319 506.933 408.77 507.812 408.995C509.164 409.311 511.023 409.469 513.389 409.469C517.423 409.469 520.342 408.945 522.145 407.897C523.948 406.849 524.849 405.367 524.849 403.452C524.849 402.032 524.325 400.663 523.277 399.344C522.229 398.026 520.826 397.006 519.069 396.285C518.054 395.879 516.342 395.598 513.93 395.44C512.781 395.373 511.896 395.017 511.277 394.375C510.657 393.733 510.347 392.938 510.347 391.992C510.347 391.001 510.685 390.166 511.361 389.491C512.037 388.814 512.894 388.477 513.93 388.477C516.229 388.477 517.457 388.465 517.615 388.443C518.516 388.353 519.418 388.06 520.319 387.563C521.221 387.068 521.947 386.386 522.5 385.518C523.052 384.651 523.328 383.755 523.328 382.831C523.328 381.367 522.68 380.099 521.384 379.028C520.088 377.958 518.145 377.422 515.553 377.422C512.218 377.422 509.671 378.392 507.913 380.329C507.395 380.893 506.978 381.254 506.662 381.412C506.189 381.659 505.66 381.783 505.074 381.783C504.127 381.783 503.316 381.445 502.64 380.769C501.964 380.093 501.626 379.259 501.626 378.268C501.626 376.713 502.662 375.203 504.736 373.738C507.755 371.597 511.53 370.526 516.06 370.526C520.342 370.526 523.779 371.743 526.37 374.178C528.962 376.611 530.258 379.541 530.258 382.966C530.258 384.746 529.875 386.409 529.108 387.952C528.342 389.496 527.193 390.922 525.66 392.229Z" fill="black"/>
    <path d="M546.923 13.8462H540V360H546.923V13.8462Z" fill="black"/>
    <path d="M574.615 13.8462H553.846V360H574.615V13.8462Z" fill="black"/>
    <path d="M574.392 371.642V398.754C575.857 398.754 576.939 399.074 577.637 399.717C578.336 400.359 578.685 401.187 578.685 402.201C578.685 403.215 578.33 404.049 577.62 404.703C576.911 405.356 575.834 405.683 574.392 405.683V408.455C575.857 408.455 576.939 408.782 577.637 409.435C578.336 410.089 578.685 410.923 578.685 411.937C578.685 412.951 578.33 413.779 577.62 414.421C576.911 415.064 575.722 415.385 574.054 415.385H564.758C563.09 415.385 561.902 415.064 561.192 414.421C560.482 413.779 560.127 412.94 560.127 411.903C560.127 410.889 560.482 410.061 561.192 409.419C561.902 408.776 563.09 408.455 564.758 408.455H567.462V405.683H548.634V399.903L565.231 371.642H574.392ZM567.462 398.754V381.716L557.423 398.754H567.462Z" fill="black"/>
    <path d="M595.385 13.8462H588.462V360H595.385V13.8462Z" fill="black"/>
    <path d="M630 13.8462H609.231V360H630V13.8462Z" fill="black"/>
    <path d="M606.865 378.572V386.82C609.434 386.009 611.766 385.603 613.862 385.603C618.121 385.603 621.66 387.057 624.477 389.964C627.294 392.872 628.702 396.623 628.702 401.221C628.702 405.954 627.277 409.666 624.426 412.359C621.575 415.053 617.209 416.399 611.327 416.399C606.143 416.399 602.042 415.419 599.022 413.458C597.264 412.331 596.385 411.035 596.385 409.571C596.385 408.647 596.729 407.841 597.416 407.153C598.104 406.467 598.921 406.122 599.867 406.122C600.656 406.122 601.512 406.5 602.436 407.255C603.36 408.01 604.329 408.534 605.343 408.827C606.786 409.255 608.634 409.469 610.887 409.469C615.079 409.469 617.941 408.799 619.474 407.458C621.006 406.117 621.772 404.061 621.772 401.289C621.772 398.562 621.034 396.42 619.558 394.866C618.082 393.311 616.183 392.533 613.862 392.533C611.361 392.533 608.51 393.345 605.31 394.967C604.589 395.35 603.957 395.542 603.417 395.542C602.425 395.542 601.597 395.181 600.932 394.46C600.267 393.739 599.935 392.804 599.935 391.655V371.642H621.13C622.798 371.642 623.986 371.963 624.696 372.606C625.406 373.248 625.761 374.087 625.761 375.124C625.761 376.139 625.406 376.967 624.696 377.609C623.986 378.251 622.798 378.572 621.13 378.572H606.865Z" fill="black"/>
    <path d="M643.846 13.8462H636.923V360H643.846V13.8462Z" fill="black"/>
    <path d="M671.539 13.8462H664.615V360H671.539V13.8462Z" fill="black"/>
    <path d="M668.307 378.572H652.453C652.362 379.924 652.013 380.899 651.405 381.496C650.796 382.093 649.996 382.392 649.005 382.392C647.968 382.392 647.128 382.043 646.486 381.344C645.844 380.646 645.523 379.462 645.523 377.795V371.642H675.608V378.572L664.386 411.97C663.912 413.368 663.388 414.297 662.814 414.76C662.239 415.221 661.546 415.453 660.735 415.453C659.766 415.453 658.937 415.114 658.25 414.438C657.563 413.762 657.219 412.985 657.219 412.106C657.219 411.61 657.399 410.821 657.76 409.74L668.307 378.572Z" fill="black"/>
    <path d="M692.308 13.8462H685.385V422.308H692.308V13.8462Z" fill="black"/>
    <path d="M706.154 13.8462H699.231V422.308H706.154V13.8462Z" fill="black"/>
  </g>
</svg>